<svg xmlns="http://www.w3.org/2000/svg" width="137.12" height="66.69" viewBox="0 0 137.12 66.69">
  <g id="Group_84" data-name="Group 84" transform="translate(8003.588 3915.746)">
    <g id="Group_83" data-name="Group 83" transform="translate(-7934.749 -3889.423)">
      <g id="Group_82" data-name="Group 82" transform="translate(0 0)">
        <g id="Group_79" data-name="Group 79">
          <path id="Path_67" data-name="Path 67" d="M-7739.588-3816.7v3.951l-4-4.51h-2.446l.462.626v6.613l-.462.58h2.744l-.482-.59v-4.007l4.243,4.6h1.749v-7.233l.482-.585h-2.739Z" transform="translate(7746.035 3817.263)"/>
          <path id="Path_68" data-name="Path 68" d="M-7703.247-3816.678v6.644l-.487.59h7.362v-2.1l-.616.487h-3.975v-1.534h2.528l.591.487v-2.5l-.591.487h-2.528v-1.534h3.975l.616.482v-2.093h-7.362Z" transform="translate(7715.041 3817.263)"/>
          <path id="Path_69" data-name="Path 69" d="M-7662.812-3809.511l1.534-3.991,1.442,3.991h1.7l3.139-7.752h-2.524l.457.58-1.626,4.268-1.621-4.848h-1.355l-1.862,4.848-1.379-4.268.456-.58h-3.119l3.006,7.752Z" transform="translate(7688.544 3817.263)"/>
        </g>
        <g id="Group_80" data-name="Group 80" transform="translate(0 15.678)">
          <path id="Path_70" data-name="Path 70" d="M-7741.388-3756.875a6.142,6.142,0,0,1,3.078.852v-2.565l-.554.5a8.049,8.049,0,0,0-2.534-.457q-4.633,0-4.638,3.94,0,4.094,4.693,4.094a6.563,6.563,0,0,0,3.032-.683v-1.524a6.664,6.664,0,0,1-3.083.539q-2.216,0-2.217-2.329C-7743.609-3756.084-7742.865-3756.875-7741.388-3756.875Z" transform="translate(7746.035 3758.593)"/>
          <path id="Path_71" data-name="Path 71" d="M-7708.642-3750.337l-.462-.59.405-.806h3.74l.354.806-.462.59h3.257l-3.816-7.829h-2.637l.262.59-3.468,7.238Zm1.806-5.623,1.288,2.8h-2.606Z" transform="translate(7720.707 3758.284)"/>
          <path id="Path_72" data-name="Path 72" d="M-7668.648-3750.322h3.228l-.482-.585v-1.775h2.1q3.032,0,3.031-2.693,0-2.771-2.979-2.771h-4.9l.462.641v6.6Zm2.745-6.208h1.56c.826,0,1.236.395,1.236,1.185a1.058,1.058,0,0,1-1.211,1.18h-1.585Z" transform="translate(7689.333 3758.269)"/>
          <path id="Path_73" data-name="Path 73" d="M-7626.88-3756.935a8.368,8.368,0,0,1,3.3.842v-2.514l-.605.549a8.264,8.264,0,0,0-2.514-.523,5.374,5.374,0,0,0-2.17.4,1.957,1.957,0,0,0-1.262,1.78,2.263,2.263,0,0,0,.554,1.518,5.429,5.429,0,0,0,2.2,1.154c1.189.349,1.785.693,1.785,1.021,0,.348-.309.523-.919.523a6.809,6.809,0,0,1-3.561-1.129v2.806l.6-.656a9.329,9.329,0,0,0,3.043.631q3.246,0,3.247-2.411,0-1.531-2.309-2.355-2.278-.662-2.278-1.149C-7627.751-3756.771-7627.454-3756.935-7626.88-3756.935Z" transform="translate(7661.107 3758.607)"/>
          <path id="Path_74" data-name="Path 74" d="M-7591.229-3758.146h-3.237l.452.564v4.258q0,3.125,3.91,3.125t3.9-3.078v-4.278l.483-.59h-3.233l.457.59v4.278c0,.929-.539,1.391-1.61,1.391s-1.6-.472-1.6-1.417v-4.252Z" transform="translate(7634.978 3758.269)"/>
          <path id="Path_75" data-name="Path 75" d="M-7553.986-3750.324h7.125v-2.093l-.676.477h-3.679v-5.618l.457-.59h-3.227l.482.59v6.648Z" transform="translate(7605.317 3758.27)"/>
          <path id="Path_76" data-name="Path 76" d="M-7518.095-3750.329h7.356v-2.093l-.615.482h-3.976v-1.534h2.528l.59.488v-2.5l-.59.488h-2.528v-1.534h3.976l.615.487v-2.1h-7.356l.488.59v6.644Z" transform="translate(7579.019 3758.27)"/>
        </g>
        <g id="Group_81" data-name="Group 81" transform="translate(0 31.453)">
          <path id="Path_77" data-name="Path 77" d="M-7736.7-3699.126h-3.278l.481.59v2.35h-3.715v-2.375l.457-.564h-3.277l.487.59v6.644l-.487.59h3.277l-.457-.564v-2.509h3.715v2.483l-.481.59h3.278l-.457-.564v-6.695Z" transform="translate(7746.035 3699.25)"/>
          <path id="Path_78" data-name="Path 78" d="M-7699.377-3699.587q-4.455,0-4.453,3.976,0,4.1,4.53,4.1,4.34,0,4.34-4.012Q-7694.959-3699.587-7699.377-3699.587Zm.057,6.422q-2.108,0-2.108-2.462,0-2.308,2.011-2.309,2.054,0,2.052,2.411C-7697.366-3693.954-7698.018-3693.165-7699.32-3693.165Z" transform="translate(7715.111 3699.587)"/>
          <path id="Path_79" data-name="Path 79" d="M-7662.524-3696.8l.559-.457h2.175v5.366l-.486.59H-7657l-.457-.564v-5.392h2.182l.569.457v-2.324h-7.818Z" transform="translate(7684.845 3699.25)"/>
          <path id="Path_80" data-name="Path 80" d="M-7623.651-3698.537v6.644l-.487.59h7.361v-2.1l-.616.487h-3.976v-1.534h2.53l.59.482v-2.5l-.59.482h-2.53v-1.534h3.976l.616.487v-2.1h-7.361Z" transform="translate(7656.719 3699.25)"/>
          <path id="Path_81" data-name="Path 81" d="M-7584.613-3692.914v-5.623l.457-.59h-3.228l.483.59v6.648l-.483.59h7.126v-2.1l-.677.482Z" transform="translate(7629.789 3699.25)"/>
        </g>
      </g>
    </g>
    <path id="Path_82" data-name="Path 82" d="M-7942.347-3888.509q0-.112-.015-.223c0-.013,0-.026,0-.038a30.576,30.576,0,0,0-3.064-10.036,30.711,30.711,0,0,0-27.537-16.94,30.709,30.709,0,0,0-27.536,16.939,30.59,30.59,0,0,0-3.065,10.037.276.276,0,0,0,0,.029,2.589,2.589,0,0,0-.018.263c0,.008,0,.017,0,.026v36.723a2.672,2.672,0,0,0,2.672,2.673h55.9a2.674,2.674,0,0,0,2.674-2.673v-36.716C-7942.344-3888.467-7942.347-3888.488-7942.347-3888.509Zm-54.976,2.318q.634-.053,1.271-.086l.124-.007q1.446-.07,2.891-.03l.343.012q.529.018,1.057.051c.143.009.286.018.429.029.166.012.332.029.5.043v17.237c-4.868-.038-6.877,1.888-7.354,2.445h0s-.063.066-.177.165V-3886.1c.18-.019.357-.041.537-.057C-7997.578-3886.168-7997.45-3886.181-7997.322-3886.191Zm43.028-.06q.526-.032,1.053-.051c.118,0,.236-.009.354-.012.455-.012.91-.018,1.366-.013h.033q.738.007,1.479.043l.167.01c.409.021.819.049,1.228.083.134.011.267.024.4.037.176.016.351.037.525.056v17.64a7.3,7.3,0,0,0-4.238,2.171,6.084,6.084,0,0,1-3.416,1.573v-21.453c.209-.019.417-.039.627-.055Zm-21.37-1.4-.223-.1q-.541-.245-1.085-.476l-.255-.108q-.612-.254-1.231-.489c-.093-.036-.186-.069-.279-.1-.394-.147-.788-.289-1.187-.423l-.119-.042c-.429-.144-.859-.279-1.29-.409l-.292-.087c-.434-.127-.868-.25-1.3-.364l-.131-.032q-.614-.158-1.234-.3c-.055-.012-.108-.027-.164-.039l0-.01c.105-.212.219-.42.336-.625.031-.056.064-.111.1-.167.093-.159.19-.314.291-.47.033-.051.065-.1.1-.155q.2-.294.41-.578c.021-.028.044-.055.066-.083q.185-.242.383-.476.066-.079.135-.157.192-.22.395-.433c.031-.033.063-.067.095-.1q.248-.253.511-.494c.043-.041.088-.079.132-.118.14-.124.281-.246.427-.364l.159-.129c.188-.149.38-.294.577-.434a12.77,12.77,0,0,1,7.375-2.326,12.754,12.754,0,0,1,6.542,1.788q.422.251.828.537c.2.139.389.285.577.434.055.042.108.086.161.13.145.118.285.239.424.362.045.04.091.08.136.121q.262.24.51.492c.034.035.066.071.1.106.133.139.262.28.389.425.046.054.094.108.14.163.129.152.253.306.374.464.024.031.051.063.075.095.142.187.275.378.406.573.036.054.07.109.105.163q.148.227.285.46c.034.058.069.115.1.173.116.2.229.412.334.622l0,.011-.114.027-.081.018-.269.063-.164.039-.035.008-.492.121-.193.048-.313.082-.015,0-.3.082-.194.052-.031.009c-.171.047-.338.1-.506.146s-.315.091-.474.139l-.032.01c-.151.045-.3.092-.45.14l-.065.021c-.117.037-.234.076-.353.115-.238.078-.475.157-.711.239-.148.052-.3.1-.445.155s-.313.112-.455.166-.293.11-.438.167c-.238.091-.484.187-.749.295l-.179.073c-.132.054-.266.108-.4.164l-.478.206c-.181.077-.359.156-.521.231l-.067.031c-.154.07-.308.142-.462.213-.372.173-.748.353-1.13.543l-.008,0-.034.017-.587.3c-.242.125-.484.255-.719.382l-.028.016-.064-.034c-.376-.205-.756-.4-1.137-.6l-.309-.155C-7974.869-3887.274-7975.265-3887.466-7975.664-3887.65Zm-9.7,2.308a38.271,38.271,0,0,1,9.727,3.685v15.787a6.705,6.705,0,0,1-4.155,1.116,6.456,6.456,0,0,1-3.671-1.6,21.528,21.528,0,0,0-1.9-1.235Zm15.072,3.685.271-.148.2-.1c.228-.119.454-.236.683-.351.116-.058.231-.113.348-.169s.253-.124.38-.185q.321-.152.641-.3l.163-.074c.1-.044.2-.087.3-.133l.336-.144.225-.1c.121-.051.243-.1.365-.15l.025-.01c.362-.147.686-.273,1.008-.392l.048-.018c.126-.047.252-.094.381-.139.205-.073.412-.146.608-.213l.05-.017.171-.057c.164-.054.329-.109.5-.163l.073-.023c.122-.038.242-.077.38-.118s.282-.086.424-.125l.039-.011c.143-.043.284-.083.43-.124l.209-.057.213-.057.175-.046c.1-.026.2-.053.3-.077l.663-.159v18.859a11.106,11.106,0,0,0-6.213-2.364,15.972,15.972,0,0,0-3.391.175Zm7.587-18.255a18.024,18.024,0,0,0-7.587-2.976v-7.375a25.356,25.356,0,0,1,12.84,5.1Zm-12.933-2.976a18.025,18.025,0,0,0-7.587,2.975l-5.252-5.252a25.356,25.356,0,0,1,12.839-5.1Zm-22.6,42.635a10.844,10.844,0,0,0,4.161-2.681c.16-.117,1.2-.775,3.855-.649a4.693,4.693,0,0,1,1.335.245,9.432,9.432,0,0,1,2.346,1.355,11.477,11.477,0,0,0,6.5,2.569,11.7,11.7,0,0,0,9.03-3.418c.172-.122,1.215-.772,3.861-.647a6.452,6.452,0,0,1,3.672,1.6,12.578,12.578,0,0,0,4.9,2.372l.037.008h.007a10.494,10.494,0,0,0,1.563.189c.2.01.4.014.6.014a11.634,11.634,0,0,0,8.434-3.433,1.818,1.818,0,0,1,.25-.145v8.472h-50.554Zm49.9-31.284-.429-.029-.149-.011c-.257-.017-.516-.032-.773-.044l-.053,0a44.137,44.137,0,0,0-5.033.044l-.125.008c-.2.013-.393.029-.588.045l-.348.029-.176.014c0-.01-.009-.021-.013-.032-.021-.053-.044-.1-.065-.158-.072-.18-.146-.36-.226-.538-.034-.08-.071-.16-.107-.239-.069-.151-.14-.3-.214-.451-.039-.082-.08-.164-.121-.246-.078-.152-.158-.3-.239-.453l-.117-.214q-.173-.308-.357-.608l-.022-.039c-.132-.212-.269-.42-.407-.626-.045-.066-.091-.13-.136-.2-.1-.141-.2-.281-.3-.42-.054-.073-.11-.146-.165-.219q-.136-.179-.278-.355l5.2-5.2a25.779,25.779,0,0,1,3.38,5.086A25.26,25.26,0,0,1-7948.34-3891.537Zm-47.392-4.857a25.714,25.714,0,0,1,3.379-5.086l5.2,5.2q-.142.177-.279.358c-.056.073-.111.146-.166.219q-.152.208-.3.42c-.045.065-.092.13-.136.2q-.209.309-.406.626l-.025.042q-.183.3-.354.6c-.041.072-.078.144-.118.217-.081.148-.161.3-.238.45-.041.082-.082.165-.122.248-.074.148-.145.3-.213.449-.036.08-.073.16-.108.24-.078.178-.153.357-.226.538-.021.053-.044.1-.064.158,0,.011-.009.021-.013.031l-.143-.011c-.179-.016-.358-.03-.537-.044-.147-.011-.295-.024-.442-.034-.039,0-.08,0-.119-.007q-.735-.048-1.474-.071l-.155-.006c-.247-.007-.493-.011-.74-.015h-.155c-.128,0-.256,0-.384,0-.713,0-1.429.019-2.143.054h0q-.413.021-.824.047l-.1.007c-.153.01-.306.02-.457.032A25.141,25.141,0,0,1-7995.731-3896.394Z"/>
  </g>
</svg>
