<svg xmlns="http://www.w3.org/2000/svg" width="65.838" height="83.85" viewBox="0 0 65.838 83.85">
  <g id="Group_89" data-name="Group 89" transform="translate(-852.49 -403.078)">
    <g id="Group_85" data-name="Group 85" transform="translate(852.49 475.005)">
      <path id="Path_83" data-name="Path 83" d="M858.574,642.525v.108H856.66v-.108c.266,0,.456-.228.456-.659v-3.4l-1.686,4.221h-.108l-1.774-3.8v2.142s-.013,1.5.862,1.5v.108h-1.92v-.108c.95,0,.95-1.5.95-1.5v-2.313a.776.776,0,0,0-.716-.437v-.108h1.6l1.528,3.213,1.267-3.213h1.4v.108c-.273,0-.488.171-.488.558v3.029A.587.587,0,0,0,858.574,642.525Z" transform="translate(-852.49 -638.114)"/>
      <path id="Path_84" data-name="Path 84" d="M887.722,642.525v.108H885.91v-.108c.494,0,.165-.678.165-.678l-.19-.463h-1.5s-.393,1.191.608,1.141v.108h-1.559v-.108c.165-.013.323.038.944-1.464l1.1-2.89h.108c1.553,3.726,1.61,3.891,1.61,3.891C887.406,642.569,887.558,642.512,887.722,642.525Zm-1.876-1.248-.754-1.851-.691,1.851Z" transform="translate(-873.958 -638.114)"/>
      <path id="Path_85" data-name="Path 85" d="M914.373,642.525v.108h-1.914v-.108c.266,0,.456-.228.456-.659v-3.4l-1.686,4.221h-.108l-1.774-3.8v2.142s-.013,1.5.862,1.5v.108h-1.92v-.108c.95,0,.95-1.5.95-1.5v-2.313a.776.776,0,0,0-.716-.437v-.108h1.6l1.528,3.213,1.267-3.213h1.4v.108c-.272,0-.488.171-.488.558v3.029A.587.587,0,0,0,914.373,642.525Z" transform="translate(-891.204 -638.114)"/>
      <path id="Path_86" data-name="Path 86" d="M943.521,642.525v.108h-1.813v-.108c.495,0,.165-.678.165-.678l-.19-.463h-1.5s-.393,1.191.608,1.141v.108h-1.559v-.108c.165-.013.323.038.944-1.464l1.1-2.89h.108c1.553,3.726,1.61,3.891,1.61,3.891C943.2,642.569,943.357,642.512,943.521,642.525Zm-1.876-1.248-.754-1.851-.691,1.851Z" transform="translate(-912.671 -638.114)"/>
      <path id="Path_87" data-name="Path 87" d="M966.53,643.932a.773.773,0,1,1,.773.767A.772.772,0,0,1,966.53,643.932Z" transform="translate(-931.612 -641.574)"/>
      <path id="Path_88" data-name="Path 88" d="M989.141,638.171v1.274h-.108c-.051-1.134-1.4-1.166-1.4-1.166h-.121v3.587a.587.587,0,0,0,.539.659v.108h-2v-.108a.587.587,0,0,0,.539-.659v-3.587h-.121s-1.343.032-1.395,1.166h-.107v-1.274Z" transform="translate(-944.406 -638.114)"/>
      <path id="Path_89" data-name="Path 89" d="M1011.962,638.171v.108a.53.53,0,0,0-.552.583v2.617a2.042,2.042,0,0,1-1.971,2.212l-.025-.107c.545-.2,1.052-.729,1.052-2.1v-1.844c0-1.191,0-1.356-.52-1.356v-.108Z" transform="translate(-961.365 -638.114)"/>
      <path id="Path_90" data-name="Path 90" d="M1034.112,640.3a2.187,2.187,0,1,1-4.373,0,2.19,2.19,0,1,1,4.373,0Zm-1.1,0c0-1.736-.342-2.212-1.09-2.212s-1.1.475-1.1,2.212.349,2.149,1.1,2.149S1033.016,642.047,1033.016,640.3Z" transform="translate(-975.466 -637.984)"/>
      <path id="Path_91" data-name="Path 91" d="M1059.426,641.251v1.381h-3.568v-.108c.266,0,.368-.329.368-.761v-2.719c0-.393-.089-.767-.368-.767v-.108h3.485v1.2h-.108c-.145-1.1-1.863-1.1-1.863-1.1h-.228v2.047h.228s.963,0,1.027-.66h.108v1.426h-.108c-.063-.659-1.027-.659-1.027-.659h-.228v2.091h.228s1.679,0,1.945-1.274Z" transform="translate(-993.588 -638.114)"/>
    </g>
    <g id="Group_86" data-name="Group 86" transform="translate(860.815 485.195)">
      <path id="Path_92" data-name="Path 92" d="M879.678,671.31h.694a1.016,1.016,0,0,1,.477.108.793.793,0,0,1,.321.3.909.909,0,0,1,0,.884.792.792,0,0,1-.321.3,1.017,1.017,0,0,1-.477.108h-.694Zm.684,1.548a.825.825,0,0,0,.392-.089.645.645,0,0,0,.26-.246.753.753,0,0,0,0-.723.646.646,0,0,0-.26-.246.829.829,0,0,0-.392-.089h-.5v1.392Z" transform="translate(-879.678 -671.295)"/>
      <path id="Path_93" data-name="Path 93" d="M890.219,671.31h.18v1.7h-.18Z" transform="translate(-886.991 -671.295)"/>
      <path id="Path_94" data-name="Path 94" d="M898.365,671.31v1.7h-.173v-1.363l-.67,1.147h-.085l-.669-1.139v1.356H896.6v-1.7h.148l.74,1.263.733-1.263Z" transform="translate(-891.415 -671.295)"/>
      <path id="Path_95" data-name="Path 95" d="M913.955,672.934a.666.666,0,0,1-.269-.161l.07-.139a.675.675,0,0,0,.246.15.9.9,0,0,0,.317.057.579.579,0,0,0,.343-.084.259.259,0,0,0,.114-.218.217.217,0,0,0-.062-.163.42.42,0,0,0-.152-.094,2.575,2.575,0,0,0-.251-.072,2.647,2.647,0,0,1-.307-.094.507.507,0,0,1-.2-.138.367.367,0,0,1-.081-.251.423.423,0,0,1,.068-.235.463.463,0,0,1,.209-.169.855.855,0,0,1,.351-.063,1.036,1.036,0,0,1,.286.04.819.819,0,0,1,.242.111l-.061.144a.834.834,0,0,0-.229-.106.854.854,0,0,0-.239-.035.552.552,0,0,0-.337.087.269.269,0,0,0-.113.223.222.222,0,0,0,.062.164.409.409,0,0,0,.156.095c.063.022.146.046.252.072a2.422,2.422,0,0,1,.3.091.5.5,0,0,1,.2.136.362.362,0,0,1,.081.247.421.421,0,0,1-.07.235.468.468,0,0,1-.213.168.892.892,0,0,1-.353.062A1.09,1.09,0,0,1,913.955,672.934Z" transform="translate(-903.273 -671.262)"/>
      <path id="Path_96" data-name="Path 96" d="M923.22,672.839a.761.761,0,0,1-.185-.553v-.976h.18v.968a.637.637,0,0,0,.134.443.589.589,0,0,0,.776,0,.638.638,0,0,0,.134-.443v-.968h.176v.976a.765.765,0,0,1-.184.553.794.794,0,0,1-1.031,0Z" transform="translate(-909.759 -671.295)"/>
      <path id="Path_97" data-name="Path 97" d="M935.122,671.31v1.7h-.173v-1.363l-.669,1.147H934.2l-.67-1.139v1.356h-.173v-1.7h.148l.74,1.263.732-1.263Z" transform="translate(-916.918 -671.295)"/>
      <path id="Path_98" data-name="Path 98" d="M952.141,673.014l-.389-.547a1.3,1.3,0,0,1-.137.007h-.457v.54h-.18v-1.7h.638a.77.77,0,0,1,.511.156.53.53,0,0,1,.185.428.528.528,0,0,1-.389.536l.416.584Zm-.144-.806a.439.439,0,0,0,0-.632.594.594,0,0,0-.387-.111h-.453v.854h.453A.589.589,0,0,0,952,672.208Z" transform="translate(-929.146 -671.295)"/>
      <path id="Path_99" data-name="Path 99" d="M961.9,672.858v.156h-1.2v-1.7h1.168v.156h-.988v.606h.881v.153h-.881v.633Z" transform="translate(-935.891 -671.295)"/>
      <path id="Path_100" data-name="Path 100" d="M969.728,672.934a.667.667,0,0,1-.269-.161l.071-.139a.67.67,0,0,0,.246.15.9.9,0,0,0,.316.057.578.578,0,0,0,.343-.084.259.259,0,0,0,.115-.218.218.218,0,0,0-.062-.163.42.42,0,0,0-.152-.094,2.575,2.575,0,0,0-.251-.072,2.663,2.663,0,0,1-.307-.094.5.5,0,0,1-.2-.138.364.364,0,0,1-.081-.251.426.426,0,0,1,.068-.235.463.463,0,0,1,.209-.169.856.856,0,0,1,.351-.063,1.035,1.035,0,0,1,.286.04.821.821,0,0,1,.242.111l-.061.144a.841.841,0,0,0-.229-.106.854.854,0,0,0-.239-.035.553.553,0,0,0-.338.087.269.269,0,0,0-.113.223.222.222,0,0,0,.062.164.411.411,0,0,0,.156.095c.062.022.147.046.252.072a2.45,2.45,0,0,1,.3.091.5.5,0,0,1,.2.136.363.363,0,0,1,.08.247.421.421,0,0,1-.07.235.465.465,0,0,1-.213.168.891.891,0,0,1-.353.062A1.092,1.092,0,0,1,969.728,672.934Z" transform="translate(-941.969 -671.262)"/>
      <path id="Path_101" data-name="Path 101" d="M978.5,671.466h-.6v-.156h1.378v.156h-.6v1.548h-.18Z" transform="translate(-947.826 -671.295)"/>
      <path id="Path_102" data-name="Path 102" d="M987.486,672.559h-.949l-.2.455h-.188l.779-1.7h.178l.779,1.7h-.19Zm-.066-.146-.409-.915-.409.915Z" transform="translate(-953.545 -671.295)"/>
      <path id="Path_103" data-name="Path 103" d="M996.728,672.839a.762.762,0,0,1-.185-.553v-.976h.18v.968a.637.637,0,0,0,.134.443.589.589,0,0,0,.776,0,.636.636,0,0,0,.134-.443v-.968h.175v.976a.764.764,0,0,1-.184.553.795.795,0,0,1-1.031,0Z" transform="translate(-960.759 -671.295)"/>
      <path id="Path_104" data-name="Path 104" d="M1008.026,673.014l-.39-.547a1.3,1.3,0,0,1-.137.007h-.457v.54h-.18v-1.7h.637a.77.77,0,0,1,.511.156.532.532,0,0,1,.185.428.528.528,0,0,1-.389.536l.416.584Zm-.144-.806a.44.44,0,0,0,0-.632.594.594,0,0,0-.387-.111h-.453v.854h.453A.588.588,0,0,0,1007.882,672.208Z" transform="translate(-967.919 -671.295)"/>
      <path id="Path_105" data-name="Path 105" d="M1017.036,672.559h-.95l-.2.455h-.187l.779-1.7h.178l.779,1.7h-.19Zm-.066-.146-.409-.915-.409.915Z" transform="translate(-974.047 -671.295)"/>
      <path id="Path_106" data-name="Path 106" d="M1027.683,671.31v1.7h-.148l-1.1-1.382v1.382h-.18v-1.7h.148l1.1,1.383V671.31Z" transform="translate(-981.377 -671.295)"/>
      <path id="Path_107" data-name="Path 107" d="M1036.421,671.466h-.6v-.156h1.378v.156h-.6v1.548h-.18Z" transform="translate(-988.011 -671.295)"/>
    </g>
    <g id="Group_88" data-name="Group 88" transform="translate(864.883 403.078)">
      <path id="Path_108" data-name="Path 108" d="M899.281,538.625V540.2a1.579,1.579,0,0,0,1.579,1.579h6.316a1.579,1.579,0,0,0,1.579-1.579v-6.316a1.579,1.579,0,0,0-1.579-1.579H900.86a1.579,1.579,0,0,0-1.579,1.579v4.736Zm6.316-1.579h0a1.579,1.579,0,0,1-1.579,1.579h0a1.579,1.579,0,0,1-1.579-1.579h0a1.579,1.579,0,0,1,1.579-1.579h0A1.579,1.579,0,0,1,905.6,537.047Zm-11.052-4.737h0a1.579,1.579,0,0,1-1.579-1.579v-3.158a1.579,1.579,0,0,1,1.579-1.579h12.631a1.579,1.579,0,0,1,1.579,1.579h0a1.579,1.579,0,0,1-1.579,1.579H897.7a1.579,1.579,0,0,0-1.579,1.579h0A1.579,1.579,0,0,1,894.544,532.31Zm39.473-14.21h0a1.579,1.579,0,0,0-1.579-1.579H894.544a1.579,1.579,0,0,0-1.579,1.579h0a1.579,1.579,0,0,0,1.579,1.579h15.789a1.579,1.579,0,0,1,1.579,1.579v22.1a1.579,1.579,0,0,1-1.579,1.579H897.7a1.579,1.579,0,0,1-1.579-1.579v-6.316a1.579,1.579,0,0,0-1.579-1.579h0a1.579,1.579,0,0,0-1.579,1.579v9.473a1.579,1.579,0,0,0,1.579,1.579h37.894a1.579,1.579,0,0,0,1.579-1.579h0a1.579,1.579,0,0,0-1.579-1.579H916.649a1.579,1.579,0,0,1-1.579-1.579V540.2a1.579,1.579,0,0,1,1.579-1.579h15.789a1.579,1.579,0,0,0,1.579-1.579v-9.473a1.579,1.579,0,0,0-1.579-1.579H916.649a1.579,1.579,0,0,1-1.579-1.579v-3.158a1.579,1.579,0,0,1,1.579-1.579h15.789A1.579,1.579,0,0,0,934.017,518.1Zm-3.158,12.631v3.158a1.579,1.579,0,0,1-1.579,1.579H916.649a1.579,1.579,0,0,1-1.579-1.579v-3.158a1.579,1.579,0,0,1,1.579-1.579H929.28A1.579,1.579,0,0,1,930.859,530.731Z" transform="translate(-892.965 -481.785)"/>
      <g id="Group_87" data-name="Group 87">
        <path id="Path_109" data-name="Path 109" d="M930.859,403.078H894.544a1.579,1.579,0,0,0-1.579,1.579v28.42a1.579,1.579,0,0,0,1.579,1.579h0a1.579,1.579,0,0,0,1.579-1.579V407.815a1.579,1.579,0,0,1,1.579-1.579h12.631a1.579,1.579,0,0,1,1.579,1.579v25.262a1.579,1.579,0,0,0,1.579,1.579h0a1.579,1.579,0,0,0,1.579-1.579V407.815a1.579,1.579,0,0,1,1.579-1.579H929.28a1.579,1.579,0,0,1,1.579,1.579v25.262a1.579,1.579,0,0,0,1.579,1.579h0a1.579,1.579,0,0,0,1.579-1.579v-28.42a1.579,1.579,0,0,0-1.579-1.579Z" transform="translate(-892.965 -403.078)"/>
        <rect id="Rectangle_62" data-name="Rectangle 62" width="9.823" height="3.158" rx="1.579" transform="translate(6.316 15.789)"/>
        <rect id="Rectangle_63" data-name="Rectangle 63" width="9.823" height="3.158" rx="1.579" transform="translate(25.088 15.789)"/>
      </g>
    </g>
  </g>
</svg>
