<svg xmlns="http://www.w3.org/2000/svg" width="43.002" height="101.158" viewBox="0 0 43.002 101.158">
  <path id="Path_66" data-name="Path 66" d="M21.475,75.352A17.938,17.938,0,0,1,3.558,57.435V33.623H18.11v8.106H11.663V57.435a9.812,9.812,0,0,0,19.624,0V52.821h8.106v4.614A17.938,17.938,0,0,1,21.475,75.352ZM5.264,35.33V57.435a16.211,16.211,0,1,0,32.422,0V54.527H32.993v2.908a11.518,11.518,0,1,1-23.037,0V40.022H16.4V35.33ZM21.475,68.953A11.507,11.507,0,0,1,9.96,57.732V46.422h8.117l0,10.941c0,.028,0,.055,0,.084s0,.056,0,.084l0,.033a3.4,3.4,0,0,0,6.8-.117V46.422h8.117V57.435A11.509,11.509,0,0,1,21.475,68.953ZM11.666,57.7a9.812,9.812,0,0,0,19.62-.263V48.128h-4.7v9.319a5.107,5.107,0,0,1-10.21.188c0-.062,0-.124,0-.188s0-.114,0-.17V48.128h-4.7ZM39.392,41.729H24.84V33.623h6.447V17.917a9.812,9.812,0,1,0-19.624,0v4.614H3.558V17.917a17.917,17.917,0,0,1,35.835,0ZM26.546,40.022h11.14V17.917a16.211,16.211,0,1,0-32.422,0v2.908H9.957V17.917a11.518,11.518,0,0,1,23.037,0V35.33H26.546ZM32.99,28.931H24.872l0-10.941c0-.028,0-.055,0-.084s0-.056,0-.084l0-.033a3.4,3.4,0,0,0-6.8.117V28.931H9.957V17.917A11.506,11.506,0,0,1,18.011,6.93,11.512,11.512,0,0,1,32.99,17.621v11.31Zm-6.411-1.706h4.7v-9.57a9.812,9.812,0,0,0-19.62.263v9.307h4.7V17.906a5.107,5.107,0,0,1,10.21-.188c0,.062,0,.124,0,.188s0,.114,0,.17ZM1.485,91.97A3.8,3.8,0,0,1,0,90.7l.99-1.16a2.946,2.946,0,0,0,2.491,1.416,1.891,1.891,0,0,0,1.527-.614,2.735,2.735,0,0,0,.52-1.809V81.825H1.212V80.34H7.218v8.106a4.177,4.177,0,0,1-.947,2.978,3.667,3.667,0,0,1-2.79,1A4.472,4.472,0,0,1,1.485,91.97Zm10.443-.913A5.394,5.394,0,0,1,10.6,87.132V80.34H12.3v6.723q0,3.839,3.361,3.839a3.236,3.236,0,0,0,2.508-.947,4.157,4.157,0,0,0,.87-2.892V80.34H20.7v6.792a5.388,5.388,0,0,1-1.331,3.933,4.973,4.973,0,0,1-3.72,1.357A4.955,4.955,0,0,1,11.928,91.056Zm11.808.913A3.8,3.8,0,0,1,22.251,90.7l.99-1.16a2.947,2.947,0,0,0,2.491,1.416,1.89,1.89,0,0,0,1.527-.614,2.735,2.735,0,0,0,.52-1.809V81.825H23.463V80.34H29.47v8.106a4.177,4.177,0,0,1-.947,2.978,3.667,3.667,0,0,1-2.79,1A4.472,4.472,0,0,1,23.736,91.97Zm10.443-.913a5.394,5.394,0,0,1-1.331-3.925V80.34h1.706v6.723q0,3.839,3.361,3.839a3.237,3.237,0,0,0,2.509-.947,4.157,4.157,0,0,0,.87-2.892V80.34H42.95v6.792a5.388,5.388,0,0,1-1.331,3.933,4.974,4.974,0,0,1-3.72,1.357A4.955,4.955,0,0,1,34.179,91.056ZM2.735,100.621v.2H.674V97.831h2v.2H.892V99.2H2.483V99.4H.892v1.224Zm-.064-2.79v.2H.892V99.2H2.483V99.4H.892v1.224H2.735v.2H.674V97.831h2m.341-.341H.333v3.669H3.076v-.879H1.233v-.542H2.824v-.875H1.233v-.495H3.012V97.49Zm7.483,2.487H8.762l-.38.84H8.148l1.374-2.986h.218l1.374,2.986h-.235Zm-.081-.183L9.629,98.07l-.781,1.723Zm-.674-1.962,1.374,2.986h-.235l-.384-.84H8.762l-.38.84H8.148l1.374-2.986h.218m-.892,1.962h1.566L9.629,98.07l-.781,1.723m1.11-2.3H9.3l-.091.2-1.374,2.986-.223.484H8.6l.091-.2.289-.64h1.292l.293.641.091.2h.986l-.223-.484-1.374-2.986-.091-.2Zm-.581,1.962.252-.557.254.557Zm7.82-1.425H16.121v-.2h2.368v.2H17.414v2.79H17.2Zm1.293-.2v.2H17.414v2.79H17.2v-2.79H16.121v-.2h2.368m.341-.341H15.78v.879h1.075v2.79h.9v-2.79H18.83V97.49Zm7.376,3.131v.2H24.146V97.831h2v.2H24.363V99.2h1.591V99.4H24.363v1.224Zm-.064-2.79v.2H24.363V99.2h1.591V99.4H24.363v1.224h1.843v.2H24.146V97.831h2m.341-.341H23.8v3.669h2.743v-.879H24.7v-.542H26.3v-.875H24.7v-.495h1.779V97.49Zm7.709,3.328-.712-1a2.189,2.189,0,0,1-.29.021h-.853v.977h-.218V97.831H33.19a1.34,1.34,0,0,1,.883.267.911.911,0,0,1,.32.74.911.911,0,0,1-.7.934l.747,1.045Zm-1-1.169a1.107,1.107,0,0,0,.729-.211.839.839,0,0,0,0-1.2,1.107,1.107,0,0,0-.729-.211h-.853v1.621Zm0-1.818a1.34,1.34,0,0,1,.883.267.911.911,0,0,1,.32.74.911.911,0,0,1-.7.934l.747,1.045h-.247l-.712-1a2.189,2.189,0,0,1-.29.021h-.853v.977h-.218V97.831H33.19m-.853,1.818h.853a1.107,1.107,0,0,0,.729-.211.839.839,0,0,0,0-1.2,1.107,1.107,0,0,0-.729-.211h-.853v1.621m.853-2.159H31.778v3.669h.9v-.977h.512q.061,0,.127,0l.6.838.1.143H35.1l-.385-.54-.51-.715a1.2,1.2,0,0,0,.277-.266,1.3,1.3,0,0,0,.25-.8,1.257,1.257,0,0,0-.443-1,1.673,1.673,0,0,0-1.1-.346Zm-.512.879h.512a.8.8,0,0,1,.51.131.5.5,0,0,1,0,.676.8.8,0,0,1-.51.132h-.512v-.939Zm8.511,1.42v1.028h-.218V99.789l-1.2-1.958h.239l1.079,1.758,1.079-1.758h.226Zm1.2-1.958-1.2,1.958v1.028h-.218V99.789l-1.2-1.958h.239l1.079,1.758,1.079-1.758h.226M43,97.49H41.975l-.1.163-.788,1.284L40.3,97.652l-.1-.163h-1.04l.319.52,1.153,1.876v1.273h.9V99.885l1.153-1.876L43,97.49Z"/>
</svg>
