<svg xmlns="http://www.w3.org/2000/svg" width="55.572" height="51.797" viewBox="0 0 55.572 51.797">
  <g id="Logo_-_Nat.A_Design" data-name="Logo - Nat.A Design" transform="translate(41.785 65.278)">
    <g id="Group_2" data-name="Group 2" transform="translate(-41.785 -65.278)">
      <g id="Icon" transform="translate(0 0)">
        <path id="Path_1" data-name="Path 1" d="M488.668,657.789c-.051.5.051,1.309,0,1.81-.153,1.493-.752,3.033-.905,4.525a13.189,13.189,0,0,0,0,4.525c.051.235.256.731,0,.905a.811.811,0,0,1-.905,0c-.85-.588-.795-1.687-.905-2.715a24.871,24.871,0,0,1,0-4.525h0a2.447,2.447,0,0,0-.905,0c-.542.828-.261,1.959-.905,2.715-.36.455-1.306.618-1.81.905-.787.409-1.227.685-1.81,0a4.307,4.307,0,0,1-.905-1.81,6.18,6.18,0,0,1,0-2.715,19.3,19.3,0,0,1,1.81-5.43c.6-.981.737-.429,1.81,0,.542.215,1.289-.245,1.81,0,.106.046-.067.094,0,0,.06-.062-.035.079,0,0,.153-.409.363-.164.905,0s1.238-.143,1.81,0a2.332,2.332,0,0,1,.905.905v.905m-4.525.905c-.02-.174.113-.772,0-.905a1.041,1.041,0,0,0-.905,0,6.258,6.258,0,0,0-.905,1.81,20.107,20.107,0,0,0-.905,2.715c-.031.133.711-.051.905,0s-.061.123,0,0a17.575,17.575,0,0,1,.905-1.81c.317-.46.639-.414.905-.905.137-.215-.017-.651,0-.905" transform="translate(-457.756 -617.896)" fill="#fff"/>
        <path id="Path_2" data-name="Path 2" d="M521.668,326.092h0c-1.329,2.535-2.992,5.733-4.525,8.146-.665,1.043-.808,1.959-1.81,2.715a2.76,2.76,0,0,1-2.715,0,2.445,2.445,0,0,1-.905-.9,9.622,9.622,0,0,1-1.81-2.715c-.245-.746.2-1.064,0-1.81-.051-.241-.78-.693-.905-.905h0a27.363,27.363,0,0,1-2.715,4.525,7.957,7.957,0,0,1-2.715,1.81c-.184.078.2-.038,0,0-.359.083-.639.255-.905,0-.9-.869-1.933-2.322-1.81-3.62.074-.614.673-1.237.9-1.81a16.885,16.885,0,0,1,1.81-3.62c.337-.508.467-.482.905-.905.419-.4.312-.987.905-.905s2.01.69,2.715.905.721.138.905.905a1.16,1.16,0,0,0,.905.9,1.218,1.218,0,0,1,.905.905c.112.4.782,1.278.905,1.81.184.757-.225,1.064,0,1.81a4.318,4.318,0,0,0,.905,1.81c.1.133-.16.053,0,0,.256-.072.741.194.905,0a32.659,32.659,0,0,0,2.715-3.62c.992-1.585,1.805-3.794,2.715-5.43.419-.757.527-1.033.905-1.81a17.546,17.546,0,0,0,.905-1.81c.133-.45.46-.051,0,0-1.206.133-2.414-.194-3.62,0-.573.092-1.238-.092-1.81,0s-1.452.307-1.81,0,.2.2,0,0-.926-.7-.905-.905c.007-.167.75.064.905,0,.368-.164.527-.864.905-.905h4.525l1.81-.905c.5-.045,1.544.425,1.81,0,.7-1.022.506-2.465.905-3.62.133-.4.793-.5.905-.905a10.928,10.928,0,0,1,.905-1.81c.1-.194-.245-.02,0,0,.5.041,1.411-.317,1.81,0,.16.119.021.707,0,.905a5.643,5.643,0,0,1,0,.905l-.905,3.62h0c-.143.532-.419.031,0,0,1.418-.1,3.121.191,4.525,0h.9a4.647,4.647,0,0,1,.905,0c.409.072.164.517,0,.905-.089.219.122-.2,0,0-.14.251-.618.889-.905.905-.818.082-1.907-.143-2.715,0l-2.715.905c-.118.026-.792-.042-.9,0-.333.107.071.563,0,.905-.164.624-.772,1.187-.905,1.81-.368,1.738-.476,3.7-.905,5.43-.358,1.441-.568,2.168-.905,3.62-.388,1.677-.629,3.733-.905,5.43-.358,2.229-.977,4.066-.905,6.335a20.043,20.043,0,0,1,0,2.715c-.061.378-.527-.031-.905,0-1.012.082-.67.209-.905-.905a5.973,5.973,0,0,1,0-1.81c.061-.818-.123-1.908,0-2.715.174-1.155-.2-1.56,0-2.715.164-.941.721-2.69.905-3.62.266-1.339.68-2.271.905-3.62.164-1.022.711-1.693.905-2.715s-.235-2.618,0-3.62c.051-.2-.051.215,0,0h0m-15.386,1.81c-.13,0,.109-.071,0,0a6.85,6.85,0,0,0-.905.9v.905c-.777,1.186-2.2,2.3-2.715,3.62-.072.194.7.772.905.905s-.133.112,0,0a12.2,12.2,0,0,0,2.715-2.715c.327-.593.588-1.217.905-1.81.126-.235-.036-.64,0-.905.011-.155.1.116,0,0s-.749-.9-.905-.9" transform="translate(-477.18 -310.636)" fill="#fff"/>
        <path id="Path_3" data-name="Path 3" d="M285.4,320.554c.051-.368-.072-.537,0-.905.273-1.479.626-3.046.905-4.525.46-2.454,1.248-4.807,1.81-7.24,1.145-4.948,1.872-9.7,3.62-14.481.45-1.217,1.258-2.455,1.81-3.62.061-.123-.072-.793,0-.905.078-.151.736-.015.905,0,.486.04.439-.143.905,0,.2.061.926.649.905.905-.011.157.05-.149,0,0-.378,1.053-1.35,2.6-1.81,3.62a36.726,36.726,0,0,0-.905,3.62c-.7,2.239-1.145,4.1-1.81,6.335a76.727,76.727,0,0,0-1.81,8.146c-.583,3.364-1.186,6.592-1.81,9.956-.123.654-.782,1.156-.905,1.81-.1.56.352,1.364,0,1.81a1.075,1.075,0,0,1-1.81,0,8.534,8.534,0,0,1-1.81-3.62,33.134,33.134,0,0,1-.905-4.525c-.153-1.4-.772-2.352-.905-3.62-.1-1,.174-1.723,0-2.715a21.07,21.07,0,0,0-1.81-5.43c-.286-.573-.261-.65-.905-.905s-1.35-.685-1.81,0a6.85,6.85,0,0,0-.905,1.81c-.562,1.953-1.35,4.362-1.81,6.335-.552,2.362-1.248,4.889-1.81,7.24-.164.685.317,1.176,0,1.81-.081.185-.776-.155-.905,0-.225.245-.619.153-.905,0-.39-.2-.6.32-.905,0-.276-.307-.072-1.442,0-1.81a26.086,26.086,0,0,1,.905-4.525c.6-1.666,1.3-3.662,1.81-5.43.358-1.247.537-2.383.905-3.62.307-1.043,1.217-1.8,1.81-2.715.276-.429.384-1.636.9-1.81a4.5,4.5,0,0,1,1.81,0c1.4.245,1.9,1.539,2.715,2.715a12.212,12.212,0,0,1,1.81,4.525c.378,1.677.6,2.849.905,4.525.235,1.288.66,3.237.905,4.525.174.92.67,1.815.905,2.715h0" transform="translate(-269.878 -288.806)" fill="#fff"/>
        <path id="Path_4" data-name="Path 4" d="M655.508,721.95a2.715,2.715,0,1,1-2.715-2.715,2.563,2.563,0,0,1,2.715,2.715" transform="translate(-611.02 -674.817)" fill="#fff"/>
      </g>
    </g>
  </g>
</svg>
